<svg xmlns="http://www.w3.org/2000/svg" viewBox="0 0 64 64"><defs><linearGradient id="g" x1="0" y1="0" x2="1" y2="1"><stop offset="0" stop-color="#ff8a4c"/><stop offset=".5" stop-color="#ff3d9a"/><stop offset="1" stop-color="#7c4dff"/></linearGradient></defs><rect width="64" height="64" rx="16" fill="url(#g)"/><g fill="none" stroke="#fff" stroke-width="4.5" stroke-linecap="round" stroke-linejoin="round"><path d="M13 23v-6a4 4 0 0 1 4-4h6M41 13h6a4 4 0 0 1 4 4v6M51 41v6a4 4 0 0 1-4 4h-6M23 51h-6a4 4 0 0 1-4-4v-6"/><path d="M27.5 24.5v15a1.3 1.3 0 0 0 2 1.1l11.8-7.5a1.3 1.3 0 0 0 0-2.2l-11.8-7.5a1.3 1.3 0 0 0-2 1.1Z" fill="#fff" stroke-width="2.5"/></g></svg>
